<?xml version="1.0" encoding="utf-8"?>
<!-- Generator: Adobe Illustrator 23.0.3, SVG Export Plug-In . SVG Version: 6.00 Build 0)  -->
<svg version="1.1" id="Capa_1" xmlns="http://www.w3.org/2000/svg" xmlns:xlink="http://www.w3.org/1999/xlink" x="0px" y="0px"
	 viewBox="0 0 1200 1200" enable-background="new 0 0 1200 1200" xml:space="preserve">
<g>
	<path fill="#3A90A6" d="M222.84,213.18C147.502,281.16,102.817,377.986,91.76,485.117l49.065-33.58l2.274-40.143l0.062-1.088
		l0.255-1.014c7.477-29.722,15.05-59.831,25.68-89.383c10.646-29.574,24.212-57.498,36.986-85.158l0.601-1.303l0.864-1.048
		c5.549-6.733,11.04-13.492,16.487-20.273c-0.323,0.289-0.656,0.566-0.977,0.856L222.84,213.18z"/>
	<path fill="#3A90A6" d="M101.185,653.181l52.554-40.964c-2.669-12.259-5.021-24.568-7.057-36.856
		c-3.492-21.066-6.266-42.108-9.09-62.977l-0.151-1.115l0.061-1.075l0.686-12.105l-49.11,35.661
		C88.741,572.884,92.728,612.972,101.185,653.181z"/>
	<path fill="#3A90A6" d="M769.686,1115.127c23.525-7.466,46.177-17.163,67.451-28.806c-2.848,0.845-5.682,1.74-8.548,2.522
		c-31.181,8.541-63.348,13.301-95.627,14.535l-79.841,30.389C692.589,1133.195,731.744,1127.166,769.686,1115.127z"/>
	<path fill="#3A90A6" d="M168.39,829.676l57.931-38.777c-0.529-0.462-0.959-0.886-1.337-1.277c-1.242-1.311-2.044-2.378-2.792-3.401
		c-1.441-2.016-2.532-3.817-3.572-5.597c-4.039-7.043-7.198-13.715-10.405-20.477c-2.397-5.12-4.693-10.23-6.992-15.341
		c-0.733-0.412-0.68-0.552-1.16-0.82c-0.459-0.341-1.176-1.03-1.316-1.189l-0.461-0.511l-0.428-0.521l-0.199-0.265
		c-0.301-0.408-0.456-0.65-0.585-0.852l-0.585-0.972c-0.569-1.012-0.889-1.672-1.244-2.387c-1.324-2.721-2.4-5.161-3.502-7.669
		c-0.461-1.059-0.881-2.121-1.334-3.181l-55.227,35.499C145.001,785.391,156.128,807.987,168.39,829.676z"/>
	<path fill="#3A90A6" d="M437.845,1084.469l58.65-25.241c-8.637-5.844-17.28-11.658-25.923-17.453
		c-16.333,7.722-45.394,21.527-59.878,28.817C419.661,1075.474,428.709,1080.12,437.845,1084.469z"/>
	<path fill="#0F2A3D" d="M837.137,1086.321c-21.275,11.642-43.926,21.34-67.451,28.806c-37.942,12.04-77.096,18.068-116.565,18.64
		l79.841-30.389c-12.213,0.467-24.44,0.472-36.639-0.077c-22.224-0.867-44.391-3.646-66.154-7.634
		c-21.773-4.005-43.222-9.178-64.428-15.171l-0.463-0.131l-0.444-0.171l-31.393-12.073c-0.265-0.099-0.529-0.195-0.794-0.294
		l8.396,12.934l-35.591-15.484c-2.986-2.019-5.971-4.031-8.957-6.05l-58.65,25.241c-9.136-4.349-18.184-8.995-27.15-13.876
		c14.484-7.29,43.544-21.096,59.878-28.817c-7.637-5.121-15.273-10.239-22.929-15.262c-9.65-6.308-19.374-12.565-29.074-18.34
		c-4.838-2.85-9.696-5.589-14.411-7.838c-2.353-1.132-4.662-2.086-6.753-2.786c-2.041-0.714-4.001-0.998-4.446-0.968l-5.348,0.362
		l-3.722-4.232c-4.493-5.109-8.538-10.562-12.175-15.148c-1.823-2.279-3.554-4.271-5.199-5.792c-1.655-1.53-3.181-2.597-4.876-3.415
		l-1.829-0.882l-1.358-1.377l-31.164-31.604l-15.451-15.655c-2.562-2.546-5.137-5.073-7.629-7.364
		c-1.234-1.134-2.479-2.227-3.501-3.027c-0.493-0.394-0.96-0.701-0.993-0.717c0.024,0.001,0.127,0.117,0.951,0.406
		c0.503,0.156,1.058,0.352,2.448,0.445c1.248,0.069,3.537-0.103,5.89-1.534l-15.444-3.179c-2.412-3.391-4.821-6.811-7.215-10.359
		c-2.396-3.587-4.771-7.139-7.136-11.58c-0.591-1.131-1.185-2.334-1.774-3.755c-0.576-1.463-1.207-3.016-1.631-5.625
		c-0.184-1.317-0.352-2.953,0.022-5.234c0.19-1.318,0.766-2.952,1.635-4.524c-1.684-1.544-3.36-3.11-5.011-4.738
		c-7.487-7.389-14.409-15.88-20.045-24.954c-5.674-9.068-10.137-18.516-14.046-27.887c-1.466-3.526-2.846-7.05-4.194-10.573
		c-0.019-0.002-0.038-0.002-0.057-0.004c-3.768-0.649-5.335-1.935-6.541-2.733c-0.489-0.362-0.886-0.69-1.246-1.005l-57.931,38.777
		c-12.262-21.688-23.389-44.284-33.209-67.736l55.227-35.499c-3.795-8.858-7.379-17.729-10.78-26.717
		c-7.548-20.117-14.163-40.598-19.64-61.394c-2.304-8.651-4.346-17.371-6.249-26.112l-52.554,40.964
		c-8.457-40.21-12.444-80.297-12.107-119.431l49.11-35.661l2.637-46.552l-49.065,33.58
		C102.817,377.986,147.502,281.16,222.84,213.18l0.216-0.195c0.322-0.29,0.655-0.567,0.977-0.856
		c12.75-15.871,25.142-31.931,36.858-48.414c-17.088,11.035-33.319,23.402-48.428,36.988l-6.328,4.625l0.512,0.714
		C140.233,268.221,96.39,352.513,79.681,450.307c-17.48,102.308-3.639,211.818,40.028,316.692
		C216.014,998.294,435.161,1150.02,647.233,1150c43.094-0.006,85.943-6.275,127.357-19.418c26.42-8.384,51.819-19.444,75.492-32.873
		l0.432-0.251c19.267-10.964,37.725-23.719,54.872-37.921l2.139-1.479C885.036,1069.709,861.407,1079.124,837.137,1086.321z"/>
	<path fill="#DDAE85" d="M1050.568,650.178c-0.545,11.032-1.695,21.98-3.131,32.829l9.639,16.162
		c14.546,24.064,29.017,48.173,43.603,72.214c4.839-21.085,8.243-42.523,10.258-64.106c-13.5-24.256-27.265-48.356-40.887-72.539
		l-21.105-36.853c0.311,2.964,0.611,5.931,0.865,8.906C1051.028,621.161,1051.342,635.715,1050.568,650.178z"/>
	<path fill="#DDAE85" d="M623.805,110.266L599.429,70.5c-23.745-2.347-47.64-2.829-71.4-1.235
		c-12.523,0.835-24.998,2.26-37.378,4.241l16.889,28.726C546.472,99.403,585.74,102.334,623.805,110.266z"/>
	<path fill="#DDAE85" d="M813.014,195.108l-3.842-6.432c-13.863-22.831-27.6-45.737-41.563-68.51
		c-20.363-11.428-42.298-20.325-64.821-27.609c10.503,18.558,21.044,37.094,31.601,55.621c19.383,9.378,38.162,19.976,56.213,31.623
		C798.21,184.711,805.671,189.83,813.014,195.108z"/>
	<path fill="#DDAE85" d="M1006.789,440.889l-0.022,0.009c11.381,26.256,20.872,53.369,28.219,81.096
		c4.064,15.677,7.455,31.522,10.103,47.513l35.318,59.174c10.756,17.735,21.461,35.5,32.226,53.23
		c1.524-33.741-0.447-67.625-4.97-101.256c-0.104-0.141-0.227-0.26-0.322-0.409c-0.084-0.132-0.173-0.284-0.247-0.419
		c-9.201-16.836-18.714-33.488-28.063-50.237l-28.571-49.938c-19.094-33.264-38.635-66.264-57.931-99.41
		c-19.682-32.917-39.173-65.947-59.057-98.746l-29.933-49.133c-9.98-15.987-19.801-32.067-29.916-47.974
		c-8.086-6.271-16.323-12.312-24.742-18.01c-17.466-11.794-35.85-22.048-55.183-29.783c8.641,15.323,17.308,30.631,25.934,45.963
		l17.856,31.205C911.844,273.813,970.387,352.899,1006.789,440.889z"/>
	<path fill="#DDAE85" d="M682.287,86.363c-5.588-1.57-11.193-3.06-16.799-4.484c-15.693-3.864-31.58-6.924-47.568-9.165
		l24.586,41.843c24.511,6.181,48.445,14.392,71.607,24.36C703.548,121.374,692.96,103.843,682.287,86.363z"/>
	<path fill="#DDAE85" d="M1003.946,959.318l-3.935-7.076l-8.023-14.169l-16.231-28.306l-6.366-11.004
		c-8.01,9.832-16.41,19.367-25.519,28.226c-19.69,19.285-41.839,36.118-65.811,49.81l5.261,8.398
		c10.011,15.807,19.997,31.629,30.42,47.181c8.433-4.779,16.701-9.852,24.729-15.293c24.117-16.305,46.168-35.61,65.801-57.168
		L1003.946,959.318z"/>
	<path fill="#DDAE85" d="M905.373,210.863c2.871,5.111,5.747,10.219,8.601,15.341l28.547,49.952
		c19.103,33.259,38.599,66.287,57.903,99.427c19.691,32.912,39.137,65.969,59.029,98.762l29.909,49.148
		c4.125,6.62,8.221,13.257,12.324,19.891c-0.829-4.081-1.945-8.086-2.953-12.326c-2.63-10.511-5.336-21.091-7.747-31.799
		c-2.418-10.703-4.547-21.548-5.982-32.547c-0.743-5.492-1.297-11.025-1.653-16.576c-0.24-2.77-0.263-5.562-0.396-8.341
		l-0.041-1.043l0.012-0.73l0.076-1.443c0.072-0.956,0.192-1.922,0.342-2.925l-0.022-0.014c-1.168-0.716-2.207-1.438-3.18-2.271
		l-4.141-4.033c-2.777-2.839-5.456-5.787-7.996-8.872c-5.068-6.173-9.552-12.901-13.225-20.066
		c-6.935-13.445-10.696-28.269-12.288-43.025c-11.518-7.19-21.577-16.53-30.046-26.79c-8.98-10.824-16.441-22.51-23.571-34.113
		c-14.887-15.503-29.025-31.481-43.583-46.842C932.526,236.107,919.222,223.191,905.373,210.863z"/>
	<path fill="#DDAE85" d="M216.073,650.532l-34.27-57.364c-3.981-6.524-7.936-13.063-11.897-19.599
		c3.421,19.851,7.497,39.421,12.718,58.728c5.348,19.987,11.795,39.683,19.144,59.039c2.549,6.657,5.246,13.28,8.008,19.855
		l2.244-0.896c5.326,12.269,10.688,24.517,16.214,36.531l1.531-34.971l20.277,57.486c6.404,18.155,12.893,36.276,22.254,51.378
		c4.685,7.563,10.177,14.368,16.59,20.758c6.42,6.378,13.674,12.387,21.176,18.321l44.327,35.056l-47.903-12.897
		c1.144,1.688,2.311,3.381,3.5,5.082c0.568,0.276,1.023,0.537,1.445,0.778c1.552,0.931,2.578,1.715,3.535,2.461
		c1.876,1.486,3.388,2.85,4.871,4.213c2.932,2.714,5.615,5.372,8.28,8.035l15.609,15.913l29.778,30.386
		c3.197,1.777,6.128,3.969,8.564,6.262c2.972,2.785,5.335,5.619,7.448,8.266c3.125,3.979,5.851,7.612,8.63,11.026
		c1.854,0.324,3.524,0.758,5.086,1.236c-6.641-11.96-13.307-23.905-19.935-35.872l-32.902-58.158
		c-17.872-31.502-36.027-62.841-54.119-94.216c-17.567-25.375-33.17-52.11-46.616-79.881
		C238.513,688.476,227.342,669.476,216.073,650.532z"/>
	<path fill="#DDAE85" d="M285.996,203.221l-8.696-14.045l-4.075-6.517c-15.294,21.44-31.474,42.116-47.885,62.408
		c-3.873,8.465-7.763,16.874-11.592,25.266c6.876,14.918,14.46,29.417,22.371,43.722c14.541-35.269,33.543-68.786,57.253-98.838
		L285.996,203.221z"/>
	<path fill="#DDAE85" d="M200.415,484.299c-11.497-19.105-23.23-38.074-35.603-56.676l-4.358,82.703
		c1.203,8.64,2.401,17.251,3.631,25.834c9.322,17.017,18.808,33.94,28.195,50.918l30.536,54.029
		c-12.869-40.257-20.292-82.277-22.126-124.461C200.234,505.87,200.146,495.079,200.415,484.299z"/>
	<path fill="#DDAE85" d="M485.726,961.423l48.75,83.411c2.289,0.826,4.545,1.666,6.795,2.511l30.977,12.016
		c34.899,9.957,70.393,17.58,106.152,20.973c-10.944-21.587-23.144-42.43-35.426-63.226c-7.771-1.221-15.508-2.64-23.193-4.278
		C572.68,1002.737,527.553,984.903,485.726,961.423z"/>
	<path fill="#DDAE85" d="M232.729,322.551c-0.355-0.574-0.702-1.155-1.058-1.729c-7.759-12.356-15.737-24.583-24.231-36.504
		c-6.335,14.273-12.32,28.563-17.468,43.068c-9.085,25.551-15.951,52.144-22.624,79.027c10.467,22.342,21.803,44.184,33.527,65.804
		c2.16-43.122,10.089-85.936,23.645-126.93C227.054,337.646,229.803,330.066,232.729,322.551z"/>
	<path fill="#DDAE85" d="M854.548,989.131c-6.659,2.964-13.268,6.06-20.107,8.59c-13.554,5.363-27.458,9.833-41.586,13.398
		c-3.232,0.819-6.478,1.577-9.732,2.301l34.593,57.067c1.859-0.462,3.733-0.865,5.585-1.355c27.143-7.15,53.47-17.313,78.365-30.229
		c-9.115-16.049-18.651-31.839-28.16-47.645l-5.405-8.885l-3.756,1.895C861.077,985.884,857.86,987.611,854.548,989.131z"/>
	<path fill="#DDAE85" d="M653.803,1018.665c12.679,21.327,25.582,42.521,39.952,62.847c1.199,0.071,2.395,0.189,3.595,0.25
		c35.342,1.903,70.901-0.696,105.515-7.884l-33.383-57.722c-20.831,3.768-41.99,5.679-63.132,5.818
		C688.767,1022.111,671.208,1020.934,653.803,1018.665z"/>
	<path fill="#DDAE85" d="M339.555,842.623c6.613,11.245,13.198,22.506,19.871,33.716l34.245,57.378
		c10.628,17.443,21.141,34.954,31.86,52.346c1.542,0.884,3.072,1.774,4.588,2.673c10.268,6.155,20.085,12.523,29.883,18.967
		c16.162,10.672,32.086,21.508,47.997,32.34c2.858-0.823,4.31-0.674,5.672-0.688c0.346,0.018,0.637,0.05,0.954,0.076l-51.722-91.581
		c-0.888-0.558-1.786-1.1-2.67-1.663C415.307,917.55,374.751,882.465,339.555,842.623z"/>
	<path fill="#DDAE85" d="M1031.791,767.162c15.144,25.061,30.084,50.243,46.554,74.508c3.441-8.362,6.685-16.808,9.624-25.363
		c2.815-8.278,5.324-16.659,7.654-25.091c-16.175-28.733-32.604-57.316-48.896-85.98l-2.012-3.493
		C1041.307,723.666,1037.13,745.517,1031.791,767.162z"/>
	<path fill="#DDAE85" d="M417.672,120.164c6.894-2.617,14.013-4.758,21.117-6.661c7.036-1.808,14.112-3.454,21.232-4.876
		c10.67-2.137,21.415-3.803,32.202-5.014l-16.867-27.364c-5.195,1.039-10.37,2.169-15.518,3.415
		c-11.194,2.646-22.213,5.958-33.147,9.493c-10.89,3.678-21.617,7.832-32.15,12.434c-10.526,4.618-20.857,9.681-30.958,15.175
		c-3.824,2.092-7.59,4.236-11.26,6.407c4.248,8.108,8.559,16.177,12.945,24.199c4.14-2.792,8.331-5.513,12.636-8.069
		C390.511,131.748,403.808,125.263,417.672,120.164z"/>
	<path fill="#DDAE85" d="M997.509,858.46c-6.06,9.979-12.49,19.712-19.417,29.104l9.313,15.327l16.869,28.005l8.375,14.075
		l1.877,3.21c5.173-6.174,10.214-12.461,14.986-18.956c16.634-22.552,30.68-46.966,42.326-72.528
		c-13.336-26.204-28.372-51.386-43.417-76.564c-3.518,12.984-7.561,25.864-12.331,38.562
		C1010.961,832.267,1005.018,845.656,997.509,858.46z"/>
	<path fill="#DDAE85" d="M356.977,153.184c-5.281-7.628-10.636-15.212-16.059-22.753c-2.16,1.449-4.327,2.918-6.45,4.377
		c-16.958,11.68-33.57,24.337-50.801,36.62l1.837,3.039l4.256,7.139l8.424,14.273l4.597,7.844c2.509-2.93,5.06-5.828,7.666-8.681
		C324.547,179.713,340.055,165.532,356.977,153.184z"/>
	<path fill="#DDAE85" d="M291.604,878.487c0.003,0,0.02-0.002,0.023-0.003C291.59,878.482,291.577,878.483,291.604,878.487z"/>
	<path fill="#C38240" d="M1120.689,578.095c0.479-1.896,0.223-3.972-0.908-5.753c-0.638-4.021-1.276-8.042-1.98-12.046
		c-0.947-5.415-1.938-10.736-3.014-16.194c-0.937-5.519-2.638-10.983-3.986-16.187c-2.849-10.51-5.728-20.928-8.293-31.368
		c-2.572-10.436-4.832-20.893-6.412-31.413c-0.817-5.257-1.447-10.529-1.889-15.81c-0.283-2.639-0.35-5.282-0.532-7.924
		l-0.235-4.927c-0.112-1.751-0.271-3.492-0.462-5.196l-0.005-0.042c-1.645-1.844-3.417-3.682-5.255-5.409l-4.017-4.002
		c-2.529-2.649-4.953-5.382-7.235-8.217c-4.55-5.679-8.505-11.777-11.725-18.24c-6.473-12.93-9.785-27.292-10.914-41.942
		l-0.229-2.97l-2.608-1.57c-11.153-6.714-20.811-15.721-29.132-26.035c-8.357-10.308-15.509-21.795-22.525-33.545l-0.334-0.56
		l-0.498-0.53c-14.618-15.557-28.682-31.848-43.409-47.762c-14.715-15.958-30.242-31.296-46.529-45.733
		c-7.559-6.688-15.268-13.205-23.141-19.543c-0.834-1.158-1.93-2.024-3.17-2.539c-8.105-6.428-16.391-12.657-24.944-18.596
		c-17.75-12.291-36.699-23.2-56.885-31.635c-7.497-5.528-15.286-10.602-23.286-15.282c-1.372-2.159-3.67-3.38-6.056-3.457
		c-10.782-5.966-21.902-11.259-33.185-15.986c-11.105-4.635-22.333-8.847-33.732-12.492c-5.681-1.885-11.363-3.775-17.139-5.366
		c-5.75-1.674-11.49-3.393-17.327-4.759c-46.422-11.857-94.74-17.13-142.825-14.325c-48.035,2.81-95.818,13.638-140.188,32.689
		c-11.091,4.751-21.98,9.971-32.626,15.643c-5.305,2.843-10.575,5.74-15.919,8.971c-5.304,3.315-10.171,6.541-15.176,9.915
		c-19.83,13.415-38.615,27.714-57.761,40.83l-1.523,1.043l-1.115,1.581c-0.547,0.776-1.124,1.532-1.674,2.305
		c-11.716,16.483-24.108,32.543-36.858,48.414c-5.447,6.781-10.938,13.539-16.487,20.273l-0.864,1.048l-0.601,1.303
		c-12.774,27.66-26.34,55.583-36.986,85.158c-10.63,29.552-18.203,59.661-25.68,89.383l-0.255,1.014l-0.062,1.088l-2.274,40.143
		l-2.637,46.552l-0.686,12.105l-0.061,1.075l0.151,1.115c2.824,20.869,5.598,41.911,9.09,62.977
		c2.036,12.288,4.388,24.597,7.057,36.856c1.903,8.741,3.945,17.461,6.249,26.112c5.477,20.795,12.092,41.276,19.64,61.394
		c3.402,8.988,6.986,17.859,10.78,26.717c0.454,1.059,0.873,2.122,1.334,3.181c1.102,2.508,2.178,4.948,3.502,7.669
		c0.355,0.715,0.675,1.375,1.244,2.387l0.585,0.972c0.129,0.201,0.285,0.443,0.585,0.852l0.199,0.265l0.428,0.521l0.461,0.511
		c0.14,0.159,0.856,0.848,1.316,1.189c0.48,0.268,0.427,0.408,1.16,0.82c2.299,5.111,4.595,10.222,6.992,15.341
		c3.207,6.762,6.366,13.434,10.405,20.477c1.04,1.78,2.131,3.581,3.572,5.597c0.748,1.023,1.549,2.09,2.792,3.401
		c0.378,0.391,0.808,0.814,1.337,1.277c0.359,0.314,0.757,0.643,1.246,1.005c1.206,0.798,2.773,2.084,6.541,2.733
		c0.02,0.002,0.038,0.002,0.057,0.004c1.347,3.523,2.728,7.047,4.194,10.573c3.909,9.371,8.372,18.819,14.046,27.887
		c5.636,9.074,12.558,17.565,20.045,24.954c1.651,1.628,3.327,3.194,5.011,4.738c-0.868,1.573-1.445,3.206-1.635,4.524
		c-0.373,2.282-0.206,3.918-0.022,5.234c0.424,2.609,1.055,4.162,1.631,5.625c0.589,1.421,1.182,2.624,1.774,3.755
		c2.366,4.44,4.74,7.992,7.136,11.58c2.395,3.548,4.803,6.967,7.215,10.359l15.444,3.179c-2.353,1.431-4.642,1.602-5.89,1.534
		c-1.391-0.093-1.945-0.289-2.448-0.445c-0.824-0.289-0.926-0.405-0.951-0.406c0.032,0.016,0.5,0.323,0.993,0.717
		c1.022,0.8,2.267,1.893,3.501,3.027c2.493,2.291,5.067,4.817,7.629,7.364l15.451,15.655l31.164,31.604l1.358,1.377l1.829,0.882
		c1.695,0.818,3.222,1.885,4.876,3.415c1.645,1.521,3.377,3.513,5.199,5.792c3.637,4.586,7.682,10.039,12.175,15.148l3.722,4.232
		l5.348-0.362c0.445-0.03,2.404,0.254,4.446,0.968c2.091,0.7,4.4,1.654,6.753,2.786c4.714,2.248,9.573,4.987,14.411,7.838
		c9.7,5.775,19.423,12.032,29.074,18.34c7.656,5.023,15.293,10.141,22.929,15.262c8.643,5.795,17.285,11.609,25.923,17.453
		c2.985,2.019,5.97,4.031,8.957,6.05l35.591,15.484l-8.396-12.934c0.265,0.098,0.529,0.195,0.794,0.294l31.393,12.073l0.444,0.171
		l0.463,0.131c21.206,5.993,42.655,11.166,64.428,15.171c21.763,3.988,43.931,6.767,66.154,7.634
		c12.198,0.548,24.426,0.543,36.639,0.077c32.279-1.234,64.446-5.994,95.627-14.535c2.866-0.782,5.699-1.677,8.548-2.522
		c24.27-7.197,47.899-16.612,70.388-28.262c2.637-1.366,5.231-2.813,7.837-4.239c1.128-0.146,2.24-0.523,3.241-1.214
		c0.538-0.372,0.987-0.818,1.393-1.293c10.045-5.675,19.849-11.776,29.343-18.336c36.703-25.289,68.816-57.06,94.8-93.096
		c25.999-36.044,46.077-76.19,59.738-118.279c13.645-42.116,21.153-86.017,23.195-130.024
		C1128.943,653.568,1126.314,615.517,1120.689,578.095z M291.627,878.484c-0.004,0.001-0.021,0.003-0.023,0.003
		C291.577,878.483,291.59,878.482,291.627,878.484z M938.47,1017.086c-8.028,5.441-16.296,10.513-24.729,15.293
		c-10.423-15.552-20.409-31.374-30.42-47.181l-5.261-8.398c-1.356,0.774-2.695,1.58-4.063,2.334l-4.772,2.673l-1.125,0.568
		l5.405,8.885c9.509,15.806,19.045,31.596,28.16,47.645c-24.895,12.915-51.221,23.079-78.365,30.229
		c-1.852,0.49-3.726,0.893-5.585,1.355l-34.593-57.067c-4.528,1.008-9.078,1.911-13.642,2.736l33.383,57.722
		c-34.613,7.187-70.172,9.787-105.515,7.884c-1.199-0.061-2.396-0.179-3.595-0.25c-14.37-20.327-27.273-41.521-39.952-62.847
		c-3.617-0.472-7.227-0.991-10.83-1.557c12.283,20.795,24.482,41.639,35.426,63.226c-35.76-3.393-71.253-11.016-106.152-20.973
		l-30.977-12.016c-2.25-0.845-4.506-1.685-6.795-2.511l-48.75-83.411c-7.723-4.336-15.333-8.865-22.822-13.574l51.722,91.581
		c-0.317-0.026-0.607-0.058-0.954-0.076c-1.362,0.014-2.815-0.136-5.672,0.688c-15.912-10.833-31.835-21.668-47.997-32.34
		c-9.799-6.444-19.616-12.812-29.883-18.967c-1.516-0.898-3.046-1.788-4.588-2.673c-10.719-17.391-21.232-34.903-31.86-52.346
		l-34.245-57.378c-6.672-11.21-13.258-22.471-19.871-33.716c-15.496-17.541-29.952-36.003-43.278-55.252
		c18.092,31.375,36.246,62.713,54.119,94.216l32.902,58.158c6.627,11.968,13.294,23.912,19.935,35.872
		c-1.562-0.478-3.231-0.913-5.086-1.236c-2.779-3.413-5.506-7.047-8.63-11.026c-2.114-2.647-4.476-5.481-7.448-8.266
		c-2.436-2.294-5.366-4.485-8.564-6.262l-29.778-30.386l-15.609-15.913c-2.665-2.663-5.348-5.321-8.28-8.035
		c-1.482-1.362-2.995-2.727-4.871-4.213c-0.957-0.747-1.983-1.53-3.535-2.461c-0.422-0.241-0.876-0.502-1.445-0.778
		c-1.189-1.701-2.356-3.394-3.5-5.082l47.903,12.897l-44.327-35.056c-7.503-5.934-14.756-11.943-21.176-18.321
		c-6.413-6.39-11.905-13.195-16.59-20.758c-9.361-15.102-15.85-33.224-22.254-51.378l-20.277-57.486l-1.531,34.971
		c-5.526-12.014-10.888-24.261-16.214-36.531l-2.244,0.896c-2.763-6.575-5.459-13.197-8.008-19.855
		c-7.349-19.356-13.797-39.052-19.144-59.039c-5.221-19.307-9.297-38.877-12.718-58.728c3.961,6.536,7.916,13.075,11.897,19.599
		l34.27,57.364c11.269,18.944,22.44,37.944,33.587,56.958c-3.539-7.31-6.946-14.683-10.182-22.131
		c-6.322-14.444-11.86-29.229-16.662-44.251L192.28,587.08c-9.387-16.979-18.873-33.902-28.195-50.918
		c-1.23-8.583-2.428-17.194-3.631-25.834l4.358-82.703c12.372,18.602,24.106,37.571,35.603,56.676
		c0.101-4.03,0.259-8.057,0.46-12.082c-11.725-21.619-23.061-43.461-33.527-65.804c6.673-26.883,13.539-53.477,22.624-79.027
		c5.149-14.505,11.133-28.795,17.468-43.068c8.494,11.921,16.472,24.147,24.231,36.504c0.356,0.574,0.703,1.154,1.058,1.729
		c1.106-2.841,2.227-5.677,3.39-8.497c-7.912-14.305-15.496-28.804-22.371-43.722c3.829-8.392,7.719-16.802,11.592-25.266
		c16.411-20.292,32.592-40.968,47.885-62.408l4.075,6.517l8.696,14.045l7.375,11.995c3.065-3.885,6.185-7.729,9.408-11.494
		l-4.597-7.844l-8.424-14.273l-4.256-7.139l-1.837-3.039c17.231-12.283,33.844-24.941,50.801-36.62
		c2.123-1.459,4.289-2.928,6.45-4.377c5.423,7.541,10.778,15.124,16.059,22.753c2.726-1.989,5.493-3.922,8.293-5.812
		c-4.386-8.022-8.697-16.091-12.945-24.199c3.67-2.171,7.435-4.315,11.26-6.407c10.101-5.494,20.432-10.557,30.958-15.175
		c10.533-4.602,21.259-8.756,32.15-12.434c10.934-3.536,21.953-6.847,33.147-9.493c5.147-1.247,10.323-2.377,15.518-3.415
		l16.867,27.364c5.096-0.573,10.204-1.009,15.316-1.38L490.65,73.506c12.379-1.981,24.855-3.406,37.378-4.241
		c23.76-1.594,47.655-1.112,71.4,1.235l24.377,39.766c2.894,0.603,5.786,1.215,8.665,1.876c3.356,0.765,6.701,1.575,10.037,2.415
		l-24.586-41.843c15.988,2.241,31.875,5.301,47.568,9.165c5.606,1.424,11.211,2.915,16.799,4.484
		c10.673,17.48,21.26,35.011,31.827,52.554c6.827,2.938,13.587,6.025,20.275,9.261c-10.557-18.527-21.098-37.063-31.601-55.621
		c22.523,7.284,44.458,16.181,64.821,27.609c13.963,22.773,27.699,45.678,41.563,68.51l3.842,6.432
		c8.335,5.992,16.496,12.213,24.475,18.656l-17.856-31.205c-8.626-15.331-17.293-30.639-25.934-45.963
		c19.333,7.735,37.717,17.989,55.183,29.783c8.419,5.698,16.656,11.739,24.742,18.01c10.115,15.906,19.937,31.986,29.916,47.974
		l29.933,49.133c19.883,32.799,39.375,65.828,59.057,98.746c19.296,33.146,38.837,66.145,57.931,99.41l28.571,49.938
		c9.349,16.749,18.861,33.401,28.063,50.237c0.075,0.136,0.163,0.287,0.247,0.419c0.095,0.149,0.218,0.268,0.322,0.409
		c4.523,33.63,6.494,67.515,4.97,101.256c-10.764-17.73-21.469-35.495-32.226-53.23l-35.318-59.174
		c1.558,9.407,2.859,18.866,3.857,28.376l21.105,36.853c13.622,24.183,27.388,48.283,40.887,72.539
		c-2.015,21.583-5.42,43.022-10.258,64.106c-14.586-24.041-29.057-48.15-43.603-72.214l-9.639-16.162
		c-0.448,3.386-0.921,6.762-1.416,10.128c-0.42,2.871-0.862,5.74-1.308,8.609l2.012,3.493c16.292,28.664,32.721,57.247,48.896,85.98
		c-2.33,8.432-4.838,16.813-7.654,25.091c-2.939,8.556-6.183,17.002-9.624,25.363c-16.47-24.265-31.41-49.447-46.554-74.508
		c-0.844,3.422-1.715,6.839-2.619,10.25c-0.241,0.908-0.507,1.812-0.753,2.721c15.045,25.177,30.081,50.36,43.417,76.564
		c-11.646,25.562-25.692,49.977-42.326,72.528c-4.772,6.495-9.813,12.782-14.986,18.956l-1.877-3.21l-8.375-14.075l-16.869-28.005
		l-9.313-15.327c-1.701,2.306-3.408,4.609-5.175,6.87c-1.158,1.455-2.35,2.885-3.526,4.329l6.366,11.004l16.231,28.306l8.023,14.169
		l3.935,7.076l0.325,0.599C984.638,981.475,962.587,1000.781,938.47,1017.086z M988.874,296.469
		c7.129,11.603,14.591,23.289,23.571,34.113c8.469,10.26,18.528,19.6,30.046,26.79c1.592,14.755,5.353,29.579,12.288,43.025
		c3.673,7.164,8.157,13.892,13.225,20.066c2.541,3.085,5.22,6.033,7.996,8.872l4.141,4.033c0.973,0.833,2.011,1.555,3.18,2.271
		l0.022,0.014c-0.15,1.002-0.269,1.969-0.342,2.925l-0.076,1.443l-0.012,0.73l0.041,1.043c0.134,2.779,0.157,5.571,0.396,8.341
		c0.356,5.551,0.91,11.085,1.653,16.576c1.435,10.999,3.564,21.844,5.982,32.547c2.411,10.708,5.116,21.288,7.747,31.799
		c1.007,4.239,2.124,8.244,2.953,12.326c-4.103-6.633-8.199-13.27-12.324-19.891l-29.909-49.148
		c-19.893-32.793-39.338-65.85-59.029-98.762c-19.305-33.14-38.8-66.167-57.903-99.427l-28.547-49.952
		c-2.854-5.121-5.73-10.23-8.601-15.341c13.848,12.328,27.153,25.245,39.918,38.764
		C959.849,264.988,973.987,280.965,988.874,296.469z"/>
	<path fill="#FFF7F0" d="M932.342,915.146c10.009-9.55,19.176-19.95,27.9-30.698c8.629-10.83,16.461-22.313,23.762-34.077
		c13.901-23.38,23.163-50.031,30.821-76.889c7.586-26.977,13.27-54.587,17.775-82.421c2.262-13.901,4.16-27.76,5.056-41.639
		c0.953-13.875,0.867-27.784-0.099-41.714c-4.093-55.863-18.008-111.113-39.309-163.213l-0.022,0.009
		C953.905,340.97,878.422,250.862,783.359,191.17c-47.43-29.85-99.733-51.982-154.263-63.95
		c-54.464-11.97-111.318-13.343-165.668-1.939c-6.788,1.421-13.527,3.055-20.225,4.839c-6.587,1.834-13.063,3.84-19.42,6.324
		c-12.745,4.818-25.02,10.938-36.699,18.088c-23.44,14.202-44.403,32.513-62.891,52.984
		c-36.835,41.243-63.872,91.106-81.088,143.882c-17.231,52.842-24.743,108.854-22.162,164.347
		c2.603,55.513,15.42,110.415,37.665,161.336c44.09,102.373,118.368,192.178,212.289,252.425
		c46.871,30.059,98.68,52.685,152.948,64.483c54.163,11.751,110.875,12.658,164.665-0.442c13.428-3.257,26.654-7.375,39.539-12.339
		c6.508-2.332,12.784-5.215,19.122-7.957c3.151-1.411,6.206-3.022,9.316-4.521l4.647-2.287l4.538-2.49
		C889.981,950.843,912.409,934.306,932.342,915.146z M345.275,654.722c-79.37-187.914-12.181-380.947,150.069-431.152
		c162.251-50.205,358.123,61.429,437.493,249.342c79.37,187.913,12.182,380.947-150.069,431.152
		C620.517,954.27,424.645,842.635,345.275,654.722z M279.34,611.968l-2.234-6.666l-1.932-6.757l-3.804-13.547l-3.215-13.708
		c-0.519-2.29-1.111-4.567-1.569-6.87l-1.304-6.925c-7.054-36.923-9.263-74.948-5.888-112.653
		c1.476-18.877,4.853-37.597,9.355-56.027c4.438-18.462,10.691-36.497,18.213-53.98c14.973-35.04,36.838-67.141,63.55-94.501
		c13.609-13.455,28.532-25.554,44.433-36.171c15.86-10.691,32.903-19.603,50.607-26.733c4.423-1.798,8.824-3.648,13.386-5.059
		c4.532-1.486,9.018-3.116,13.585-4.473l13.803-3.716l3.45-0.926l3.498-0.722l6.998-1.427c4.662-0.963,9.316-1.961,14.047-2.514
		c4.713-0.642,9.414-1.381,14.133-1.937c9.485-0.678,18.944-1.624,28.444-1.543c9.489-0.392,18.96,0.319,28.421,0.636
		c9.419,0.982,18.877,1.55,28.186,3.272c9.372,1.264,18.579,3.403,27.805,5.344c4.589,1.077,9.123,2.387,13.681,3.569l6.82,1.832
		l6.721,2.168c35.914,11.341,69.854,28.076,101.001,48.61c-32.844-17.685-67.204-32.385-103.044-41.569l-6.683-1.813l-6.759-1.503
		c-4.513-0.962-8.995-2.052-13.522-2.909c-9.098-1.5-18.149-3.201-27.319-4.03c-9.118-1.239-18.312-1.541-27.461-2.209
		c-9.177-0.01-18.347-0.425-27.491,0.248c-9.164,0.2-18.245,1.411-27.333,2.335c-9.009,1.511-18.097,2.576-26.955,4.814
		l-6.677,1.491l-3.336,0.751l-3.285,0.953l-13.135,3.8c-4.34,1.379-8.593,3.025-12.892,4.52c-4.33,1.422-8.49,3.273-12.671,5.066
		c-33.67,13.862-64.149,34.806-89.893,60.385c-25.555,25.801-46.452,56.299-61.223,89.672
		c-15.282,33.178-24.357,69.093-28.913,105.5c-4.248,36.479-3.724,73.65,1.539,110.263l0.907,6.882
		c0.326,2.291,0.786,4.558,1.173,6.84l2.425,13.684l3.021,13.574l1.518,6.794l1.77,6.732l3.567,13.477l4.117,13.328l2.038,6.683
		l2.303,6.593l4.615,13.208C292.296,647.1,284.901,629.864,279.34,611.968z M767.1,958.877c-29.005,5.796-58.766,7.513-88.16,5.341
		c-29.368-2.38-58.458-8.069-86.21-17.569c-55.643-18.611-106.526-49.537-149.214-88.544c46.626,34.18,97.97,61.367,152.677,77.421
		c27.338,7.916,55.427,13.113,83.698,14.588c28.235,1.664,56.644-0.104,84.238-5.858c3.445-0.729,6.966-1.139,10.351-2.125
		l10.209-2.735c3.393-0.943,6.832-1.746,10.191-2.801l9.984-3.461c3.303-1.217,6.718-2.157,9.932-3.598l9.719-4.138
		c6.581-2.552,12.706-6.05,19.051-9.112l4.722-2.374l4.549-2.686l9.107-5.368c3.103-1.69,5.891-3.863,8.828-5.812l8.723-5.99
		c5.575-4.314,11.118-8.695,16.579-13.17l7.891-7.077c2.622-2.371,5.335-4.655,7.729-7.264
		c20.066-19.957,37.417-42.788,51.489-67.644c14.23-24.792,25.099-51.587,33.293-79.325c-10.06,56.914-36.06,111.999-76.47,155.071
		c-19.97,21.718-43.867,39.797-69.776,54.063C824.247,942.921,796.03,952.819,767.1,958.877z"/>
	<path fill="#0F2A3D" d="M969.391,898.764c1.176-1.443,2.367-2.874,3.526-4.329c1.767-2.261,3.474-4.564,5.175-6.87
		c6.927-9.392,13.357-19.125,19.417-29.104c7.509-12.805,13.452-26.193,18.58-39.765c4.77-12.698,8.812-25.578,12.331-38.562
		c0.246-0.908,0.512-1.812,0.753-2.721c0.903-3.411,1.775-6.828,2.619-10.25c5.339-21.645,9.516-43.496,12.923-65.419
		c0.446-2.869,0.888-5.738,1.308-8.609c0.495-3.365,0.967-6.742,1.416-10.128c1.436-10.849,2.586-21.798,3.131-32.829
		c0.774-14.463,0.459-29.016-0.758-43.388c-0.253-2.975-0.554-5.942-0.865-8.906c-0.997-9.511-2.299-18.969-3.857-28.376
		c-2.648-15.991-6.04-31.836-10.103-47.513c-7.347-27.728-16.837-54.841-28.219-81.096l0.022-0.009
		c-36.403-87.99-94.945-167.076-169.301-227.125c-7.978-6.443-16.14-12.665-24.475-18.656c-7.342-5.278-14.804-10.397-22.411-15.307
		c-18.051-11.647-36.829-22.245-56.213-31.623c-6.688-3.235-13.448-6.323-20.275-9.261c-23.163-9.968-47.097-18.18-71.607-24.36
		c-3.336-0.841-6.68-1.65-10.037-2.415c-2.879-0.66-5.771-1.273-8.665-1.876c-38.066-7.932-77.334-10.863-116.265-8.034
		c-5.112,0.371-10.22,0.807-15.316,1.38c-10.788,1.212-21.533,2.877-32.202,5.014c-7.12,1.422-14.196,3.068-21.232,4.876
		c-7.103,1.903-14.223,4.044-21.117,6.661c-13.864,5.099-27.162,11.584-39.766,19.14c-4.305,2.556-8.496,5.277-12.636,8.069
		c-2.801,1.89-5.568,3.822-8.293,5.812c-16.922,12.347-32.429,26.529-46.53,41.857c-2.606,2.853-5.157,5.751-7.666,8.681
		c-3.224,3.765-6.344,7.609-9.408,11.494c-23.71,30.052-42.712,63.569-57.253,98.838c-1.163,2.82-2.283,5.656-3.39,8.497
		c-2.926,7.515-5.675,15.095-8.209,22.736c-13.555,40.994-21.485,83.809-23.645,126.93c-0.202,4.025-0.36,8.052-0.46,12.082
		c-0.27,10.78-0.181,21.57,0.275,32.348c1.835,42.184,9.257,84.205,22.126,124.461c4.802,15.022,10.34,29.807,16.662,44.251
		c3.236,7.448,6.643,14.821,10.182,22.131c13.446,27.771,29.049,54.506,46.616,79.881c13.326,19.249,27.782,37.711,43.278,55.252
		c35.197,39.842,75.752,74.927,120.679,103.563c0.884,0.563,1.783,1.105,2.67,1.663c7.489,4.709,15.098,9.238,22.822,13.574
		c41.828,23.48,86.954,41.314,134.055,51.407c7.684,1.638,15.422,3.057,23.193,4.278c3.602,0.566,7.212,1.086,10.83,1.557
		c17.405,2.269,34.964,3.446,52.546,3.31c21.142-0.139,42.301-2.051,63.132-5.818c4.564-0.825,9.113-1.729,13.642-2.736
		c3.253-0.724,6.5-1.482,9.732-2.301c14.128-3.565,28.032-8.035,41.586-13.398c6.839-2.53,13.448-5.626,20.107-8.59
		c3.312-1.521,6.529-3.247,9.796-4.863l3.756-1.895l1.125-0.568l4.772-2.673c1.368-0.754,2.707-1.559,4.063-2.334
		c23.972-13.692,46.121-30.525,65.811-49.81C952.981,918.131,961.381,908.596,969.391,898.764z M856.485,968.728
		c-3.109,1.499-6.165,3.11-9.316,4.521c-6.338,2.743-12.614,5.625-19.122,7.957c-12.885,4.964-26.111,9.083-39.539,12.339
		c-53.79,13.1-110.502,12.193-164.665,0.442c-54.268-11.798-106.076-34.424-152.948-64.483
		c-93.922-60.246-168.199-150.051-212.289-252.425c-22.246-50.921-35.062-105.823-37.665-161.336
		c-2.581-55.494,4.931-111.506,22.162-164.347c17.216-52.775,44.253-102.639,81.088-143.882
		c18.487-20.471,39.451-38.782,62.891-52.984c11.679-7.15,23.954-13.27,36.699-18.088c6.357-2.483,12.833-4.489,19.42-6.324
		c6.698-1.785,13.437-3.418,20.225-4.839c54.35-11.403,111.205-10.031,165.668,1.939c54.53,11.968,106.834,34.101,154.263,63.95
		c95.063,59.692,170.546,149.8,214.867,253.335l0.022-0.009c21.302,52.1,35.216,107.35,39.309,163.213
		c0.966,13.93,1.051,27.838,0.099,41.714c-0.896,13.878-2.795,27.738-5.056,41.639c-4.505,27.834-10.189,55.444-17.775,82.421
		c-7.658,26.858-16.92,53.509-30.821,76.889c-7.301,11.763-15.132,23.246-23.762,34.077c-8.724,10.747-17.892,21.147-27.9,30.698
		c-19.933,19.16-42.361,35.697-66.672,48.805l-4.538,2.49L856.485,968.728z"/>
	<path fill="#0F2A3D" d="M850.232,928.706c25.909-14.265,49.806-32.345,69.776-54.063c40.41-43.072,66.41-98.157,76.47-155.071
		c-8.195,27.739-19.063,54.533-33.293,79.325c-14.072,24.856-31.423,47.687-51.489,67.644c-2.394,2.609-5.107,4.893-7.729,7.264
		l-7.891,7.077c-5.462,4.475-11.004,8.856-16.579,13.17l-8.723,5.99c-2.937,1.949-5.725,4.122-8.828,5.812l-9.107,5.368
		l-4.549,2.686l-4.722,2.374c-6.345,3.062-12.47,6.56-19.051,9.112l-9.719,4.138c-3.215,1.441-6.629,2.381-9.932,3.598l-9.984,3.461
		c-3.359,1.055-6.798,1.858-10.191,2.801l-10.209,2.735c-3.385,0.986-6.906,1.396-10.351,2.125
		c-27.594,5.755-56.003,7.522-84.238,5.858c-28.271-1.475-56.361-6.671-83.698-14.588c-54.708-16.053-106.051-43.24-152.677-77.421
		c42.688,39.007,93.572,69.933,149.214,88.544c27.752,9.501,56.842,15.19,86.21,17.569c29.395,2.172,59.156,0.455,88.16-5.341
		C796.03,952.819,824.247,942.921,850.232,928.706z"/>
	<path fill="#0F2A3D" d="M293.013,644.303l-2.038-6.683l-4.117-13.328l-3.567-13.477l-1.77-6.732l-1.518-6.794l-3.021-13.574
		l-2.425-13.684c-0.387-2.282-0.847-4.549-1.173-6.84l-0.907-6.882c-5.263-36.613-5.787-73.784-1.539-110.263
		c4.556-36.407,13.631-72.322,28.913-105.5c14.771-33.373,35.668-63.872,61.223-89.672c25.744-25.579,56.223-46.522,89.893-60.385
		c4.181-1.793,8.341-3.644,12.671-5.066c4.299-1.494,8.552-3.141,12.892-4.52l13.135-3.8l3.285-0.953l3.336-0.751l6.677-1.491
		c8.858-2.239,17.946-3.303,26.955-4.814c9.088-0.924,18.17-2.135,27.333-2.335c9.144-0.673,18.314-0.258,27.491-0.248
		c9.149,0.668,18.343,0.97,27.461,2.209c9.17,0.829,18.221,2.53,27.319,4.03c4.527,0.857,9.009,1.946,13.522,2.909l6.759,1.503
		l6.683,1.813c35.84,9.185,70.2,23.884,103.044,41.569c-31.147-20.534-65.087-37.27-101.001-48.61l-6.721-2.168l-6.82-1.832
		c-4.558-1.182-9.092-2.492-13.681-3.569c-9.226-1.941-18.433-4.08-27.805-5.344c-9.308-1.722-18.766-2.29-28.186-3.272
		c-9.461-0.317-18.932-1.028-28.421-0.636c-9.5-0.082-18.959,0.865-28.444,1.543c-4.719,0.556-9.42,1.295-14.133,1.937
		c-4.731,0.553-9.385,1.551-14.047,2.514l-6.998,1.427l-3.498,0.722l-3.45,0.926l-13.803,3.716
		c-4.567,1.357-9.053,2.988-13.585,4.473c-4.562,1.411-8.963,3.262-13.386,5.059c-17.703,7.13-34.747,16.042-50.607,26.733
		c-15.901,10.617-30.824,22.716-44.433,36.171c-26.712,27.36-48.577,59.462-63.55,94.501c-7.522,17.483-13.775,35.517-18.213,53.98
		c-4.502,18.43-7.879,37.149-9.355,56.027c-3.375,37.705-1.166,75.731,5.888,112.653l1.304,6.925c0.458,2.304,1.051,4.58,1.569,6.87
		l3.215,13.708l3.804,13.547l1.932,6.757l2.234,6.666c5.561,17.895,12.956,35.132,20.591,52.135l-4.615-13.208L293.013,644.303z"/>
	<path fill="#0F2A3D" d="M782.768,904.064c162.251-50.205,229.439-243.239,150.069-431.152
		c-79.37-187.914-275.242-299.548-437.493-249.342c-162.251,50.205-229.439,243.238-150.069,431.152
		C424.645,842.635,620.517,954.27,782.768,904.064z M746.676,818.614c-121.503,37.597-268.184-46.001-327.62-186.722
		c-59.437-140.721-9.122-285.275,112.381-322.872s268.184,46.002,327.62,186.723C918.494,636.462,868.179,781.017,746.676,818.614z
		 M351.47,473.22c0.398-3.684,0.614-7.395,1.164-11.065l1.599-11.022c1.379-7.295,2.717-14.618,4.681-21.798
		c3.669-14.411,8.372-28.618,14.524-42.229c6.072-13.641,13.457-26.709,21.913-39.065c8.541-12.303,18.34-23.738,29.117-34.166
		c21.595-20.876,47.796-36.767,75.804-47.275c14.094-5.076,28.646-8.656,43.343-11.245c14.764-2.213,29.67-3.264,44.544-2.897
		c29.736,0.843,59.143,6.683,86.845,16.773c6.994,2.337,13.698,5.43,20.505,8.201c3.348,1.521,6.648,3.148,9.97,4.715l4.968,2.378
		l4.845,2.622c13.076,6.689,25.313,14.837,37.317,23.138l-9.526-5.414l-4.754-2.702l-4.876-2.482l-9.702-5.013l-9.918-4.554
		l-4.956-2.261l-5.046-2.056l-10.083-4.091c-6.865-2.349-13.604-5.016-20.596-6.918c-27.623-8.611-56.421-12.985-85.084-13.017
		c-7.166,0.228-14.33,0.308-21.441,1.15c-7.147,0.427-14.182,1.759-21.251,2.744c-14.009,2.756-27.825,6.437-41.133,11.519
		c-26.498,10.315-51.203,25.4-71.515,45.304c-10.26,9.805-19.624,20.579-27.817,32.221c-8.15,11.675-15.135,24.142-21.203,37.052
		c-6.134,12.892-10.904,26.436-14.702,40.236c-3.779,13.808-6.652,27.912-8.302,42.194c-1.722,14.268-2.523,28.686-2.221,43.111
		c0.194,14.423,1.254,28.878,3.397,43.201c3.781,28.755,11.686,56.91,21.61,84.384C358.623,592.097,346.062,532.411,351.47,473.22z
		 M601.786,861.858c-43.127-15.945-82.122-41.529-114.657-73.022c35.795,27.723,75.26,50.339,117.714,64.216
		c21.248,6.722,43.056,11.589,65.139,13.462c22.041,2.038,44.309,1.397,66.03-2.437c43.56-7.119,84.693-27.495,116.723-58.11
		c31.893-30.892,54.196-71.276,66.73-114.76c-7.692,44.604-28.122,87.845-60.161,121.322c-16.015,16.688-34.965,30.57-55.504,41.349
		c-20.597,10.734-42.934,17.943-65.76,21.963c-22.871,3.837-46.229,4.402-69.188,1.927
		C645.913,875.143,623.324,869.855,601.786,861.858z"/>
	<path fill="#FFF7F0" d="M738.04,875.841c22.826-4.021,45.162-11.229,65.76-21.963c20.539-10.779,39.488-24.661,55.504-41.349
		c32.039-33.477,52.47-76.718,60.161-121.322c-12.534,43.484-34.838,83.868-66.73,114.76c-32.03,30.615-73.163,50.991-116.723,58.11
		c-21.72,3.834-43.988,4.475-66.03,2.437c-22.083-1.873-43.891-6.74-65.139-13.462c-42.454-13.878-81.919-36.493-117.714-64.216
		c32.535,31.492,71.53,57.076,114.657,73.022c21.538,7.997,44.127,13.285,67.067,15.91
		C691.811,880.243,715.169,879.678,738.04,875.841z"/>
	<path fill="#FFF7F0" d="M358.482,517.309c-0.302-14.425,0.5-28.843,2.221-43.111c1.65-14.282,4.523-28.387,8.302-42.194
		c3.797-13.8,8.568-27.344,14.702-40.236c6.068-12.911,13.054-25.377,21.203-37.052c8.192-11.642,17.556-22.417,27.817-32.221
		c20.312-19.904,45.017-34.989,71.515-45.304c13.308-5.083,27.124-8.763,41.133-11.519c7.069-0.985,14.104-2.317,21.251-2.744
		c7.112-0.842,14.275-0.921,21.441-1.15c28.663,0.031,57.46,4.405,85.084,13.017c6.992,1.902,13.731,4.569,20.596,6.918
		l10.083,4.091l5.046,2.056l4.956,2.261l9.918,4.554l9.702,5.013l4.876,2.482l4.754,2.702l9.526,5.414
		c-12.004-8.301-24.241-16.449-37.317-23.138l-4.845-2.622l-4.968-2.378c-3.321-1.567-6.622-3.194-9.97-4.715
		c-6.807-2.771-13.511-5.864-20.505-8.201c-27.701-10.09-57.109-15.929-86.845-16.773c-14.874-0.367-29.78,0.684-44.544,2.897
		c-14.697,2.589-29.248,6.169-43.343,11.245c-28.008,10.508-54.209,26.399-75.804,47.275
		c-10.777,10.429-20.577,21.863-29.117,34.166c-8.456,12.355-15.84,25.423-21.913,39.065c-6.153,13.611-10.855,27.819-14.524,42.229
		c-1.964,7.18-3.301,14.503-4.681,21.798l-1.599,11.022c-0.55,3.67-0.767,7.381-1.164,11.065
		c-5.408,59.191,7.153,118.877,32.02,171.674c-9.924-27.475-17.83-55.629-21.61-84.384
		C359.736,546.187,358.675,531.732,358.482,517.309z"/>
	<path fill="#3A90A6" d="M531.436,309.02c-121.503,37.597-171.818,182.152-112.381,322.872
		c59.437,140.721,206.117,224.319,327.62,186.722c121.503-37.596,171.818-182.152,112.381-322.871
		C799.62,355.022,652.939,271.423,531.436,309.02z M448.373,435.18c4.19-9.849,9.403-19.281,15.38-28.223
		c6.08-8.876,13.001-17.201,20.694-24.776c15.459-15.11,34.327-26.595,54.465-34.117c10.158-3.564,20.611-6.095,31.167-7.855
		c10.597-1.505,21.285-2.135,31.914-1.692c42.647,1.702,83.117,18.656,115.668,43.845c-18.144-9.813-36.815-18.39-56.385-23.78
		c-19.417-5.764-39.532-8.551-59.435-8.415c-39.768,0.347-79.106,15.099-106.995,42.717c-7.045,6.784-13.425,14.276-19.073,22.317
		c-5.598,8.086-10.32,16.76-14.513,25.699c-4.226,8.932-7.586,18.304-10.184,27.902c-2.569,9.599-4.67,19.384-5.871,29.328
		c-5.043,39.847,0.917,80.968,13.961,120.042c-18.762-36.695-28.61-78.925-25.51-121.186c0.646-10.558,2.293-21.081,4.78-31.419
		C440.864,455.212,444.132,445.01,448.373,435.18z M571.793,389.28c81.591-25.247,180.089,30.891,220.001,125.386
		s6.126,191.566-75.465,216.813s-180.089-30.891-220.002-125.386S490.203,414.526,571.793,389.28z M795.718,739.645
		c-22.469,24.38-53.744,40.707-86.576,46.019c-32.906,5.577-66.868,0.79-97.233-11.185c-30.473-11.954-57.655-30.952-79.577-54.219
		c26.016,18.573,53.817,33.874,83.466,43.237c29.597,9.166,60.826,12.534,90.856,7.45c30.045-4.871,58.361-18.589,80.819-39.471
		c22.316-21.12,38.356-48.871,48.354-79.215C831.888,683.973,818.218,715.273,795.718,739.645z"/>
	<path fill="#DE5542" d="M716.33,731.479c81.591-25.247,115.378-122.317,75.465-216.813S653.384,364.033,571.793,389.28
		s-115.378,122.317-75.465,216.813S634.739,756.726,716.33,731.479z M612.025,468.911c41.406-12.812,91.392,15.677,111.647,63.632
		c20.255,47.954,3.109,97.216-38.297,110.028c-41.406,12.812-91.392-15.677-111.647-63.631
		C553.473,530.985,570.619,481.724,612.025,468.911z M750.457,674.206c-14.458,15.722-34.571,26.417-55.76,29.893
		c-21.229,3.71-43.123,0.573-62.65-7.101c-19.572-7.737-36.972-20.055-50.7-35.249c16.988,11.425,34.858,20.774,53.757,26.444
		c18.862,5.587,38.625,7.377,57.563,4.139c18.945-3.171,36.86-11.624,51.221-24.688c14.296-13.175,24.838-30.542,31.805-49.781
		C773.568,638.222,764.899,658.446,750.457,674.206z M520.396,503.926c2.351-12.534,6.998-24.673,13.363-35.9
		c6.484-11.153,15.054-21.282,25.415-29.213c10.403-7.868,22.276-13.638,34.701-17.262c12.507-3.31,25.521-4.575,38.242-3.284
		c12.748,0.977,25.08,4.486,36.682,9.193c11.518,4.98,22.318,11.373,31.888,19.168c-11.013-5.563-22.237-10.37-33.842-13.639
		c-5.809-1.575-11.62-3.063-17.536-3.856c-2.932-0.529-5.905-0.728-8.837-1.132c-2.962-0.127-5.902-0.5-8.856-0.427
		c-23.571-0.609-46.922,6.618-65.143,20.685c-9.3,6.825-16.922,15.777-23.064,25.604c-6.256,9.805-10.741,20.741-13.958,32.121
		c-2.889,11.47-4.437,23.359-4.688,35.412c-0.233,12.081,1.247,24.164,3.152,36.374c-4.438-11.495-7.564-23.626-8.979-36.099
		C517.791,529.2,518.08,516.467,520.396,503.926z"/>
	<path fill="#FEB862" d="M573.727,578.94c20.255,47.954,70.241,76.443,111.647,63.631c41.406-12.812,58.552-62.074,38.297-110.028
		c-20.255-47.955-70.241-76.444-111.647-63.632C570.619,481.724,553.473,530.985,573.727,578.94z"/>
	<path fill="#FEB862" d="M743.888,667.644c-14.36,13.065-32.275,21.518-51.221,24.688c-18.939,3.238-38.701,1.448-57.563-4.139
		c-18.899-5.67-36.768-15.019-53.757-26.444c13.728,15.193,31.128,27.512,50.7,35.249c19.527,7.674,41.421,10.811,62.65,7.101
		c21.189-3.477,41.302-14.171,55.76-29.893c14.442-15.761,23.111-35.984,25.236-56.343
		C768.725,637.102,758.184,654.47,743.888,667.644z"/>
	<path fill="#FEB862" d="M527.913,577.771c-1.905-12.21-3.384-24.292-3.152-36.374c0.252-12.053,1.799-23.942,4.688-35.412
		c3.217-11.381,7.702-22.317,13.958-32.121c6.143-9.826,13.764-18.779,23.064-25.604c18.221-14.067,41.572-21.294,65.143-20.685
		c2.954-0.073,5.894,0.3,8.856,0.427c2.932,0.404,5.906,0.604,8.837,1.132c5.916,0.792,11.727,2.281,17.536,3.856
		c11.605,3.269,22.829,8.076,33.842,13.639c-9.57-7.795-20.369-14.188-31.888-19.168c-11.602-4.707-23.933-8.216-36.682-9.193
		c-12.721-1.291-25.735-0.026-38.242,3.284c-12.425,3.625-24.298,9.395-34.701,17.262c-10.361,7.931-18.93,18.06-25.415,29.213
		c-6.365,11.227-11.011,23.366-13.363,35.9c-2.315,12.541-2.604,25.274-1.461,37.746
		C520.349,554.145,523.475,566.276,527.913,577.771z"/>
	<path fill="#0F2A3D" d="M787.474,731.474c-22.458,20.883-50.774,34.6-80.819,39.471c-30.03,5.084-61.259,1.716-90.856-7.45
		c-29.649-9.364-57.451-24.664-83.466-43.237c21.922,23.267,49.104,42.266,79.577,54.219c30.365,11.975,64.327,16.762,97.233,11.185
		c32.832-5.312,64.107-21.639,86.576-46.019c22.5-24.371,36.17-55.672,40.11-87.385C825.83,682.603,809.79,710.354,787.474,731.474z
		"/>
	<path fill="#0F2A3D" d="M433.654,496.983c-3.1,42.261,6.748,84.492,25.51,121.186c-13.043-39.074-19.004-80.195-13.961-120.042
		c1.201-9.945,3.302-19.729,5.871-29.328c2.598-9.598,5.958-18.97,10.184-27.902c4.193-8.939,8.915-17.613,14.513-25.699
		c5.648-8.041,12.028-15.533,19.073-22.317c27.889-27.617,67.228-42.37,106.995-42.717c19.903-0.136,40.018,2.651,59.435,8.415
		c19.57,5.39,38.241,13.967,56.385,23.78c-32.55-25.188-73.021-42.142-115.668-43.845c-10.629-0.443-21.317,0.187-31.914,1.692
		c-10.556,1.76-21.009,4.291-31.167,7.855c-20.138,7.522-39.005,19.007-54.465,34.117c-7.693,7.575-14.614,15.901-20.694,24.776
		c-5.977,8.942-11.19,18.374-15.38,28.223c-4.241,9.83-7.508,20.032-9.939,30.384C435.947,475.902,434.3,486.425,433.654,496.983z"
		/>
</g>
</svg>
